<?xml version="1.0" encoding="UTF-8"?>
<svg id="Calque_1" data-name="Calque 1" xmlns="http://www.w3.org/2000/svg" viewBox="0 0 290.48 125.12">
  <defs>
    <style>
      .cls-1, .cls-2 {
        fill: #fdd9b9;
      }

      .cls-2 {
        stroke: #fdd9b9;
        stroke-miterlimit: 10;
      }
    </style>
  </defs>
  <g>
    <path class="cls-2" d="M222,24.33c-13.75,0-24.9,11.15-24.9,24.9s11.15,24.9,24.9,24.9,24.9-11.15,24.9-24.9-11.15-24.9-24.9-24.9ZM222,62.66c-7.42,0-13.43-6.01-13.43-13.43s6.01-13.43,13.43-13.43,13.43,6.01,13.43,13.43-6.01,13.43-13.43,13.43Z"/>
    <rect class="cls-2" x="240.13" y="43.09" width="19.31" height="12.03"/>
    <path class="cls-2" d="M257.58,26.02h8.85v41.98c0,2.01-1.63,3.63-3.63,3.63h-8.96V29.76c0-2.07,1.68-3.74,3.74-3.74Z"/>
  </g>
  <path class="cls-2" d="M27.09,26.68h8.59c2.43,0,4.41,1.98,4.41,4.41v40.69h-9.04c-2.18,0-3.95-1.77-3.95-3.95V26.68h0Z"/>
  <path class="cls-2" d="M27.09,58.63h30.85v9.8c0,1.85-1.5,3.35-3.35,3.35h-23.35c-2.29,0-4.15-1.86-4.15-4.15v-9h0Z"/>
  <path class="cls-2" d="M79.39,48.43h13.62v23.35h-9.43c-2.32,0-4.2-1.88-4.2-4.2v-19.16h0Z"/>
  <path class="cls-2" d="M45.67,49.12h12.27v18.56c0,1.14-.93,2.07-2.07,2.07h-10.2v-20.63h0Z"/>
  <path class="cls-1" d="M45.18,48.63s0-22.81,22.11-23.7c24.35-.98,26.23,23.19,26.23,23.19l-14.63-.09s-.68-6.84-6.17-9.4c-5.85-2.73-12.59,1.15-13.91,7.46-.16.76-.29,1.59-.38,2.5l-13.26.03Z"/>
  <path class="cls-2" d="M143.25,27h12.63c1.57,0,2.99.95,3.59,2.4l11.63,28.06,13.04-28.11c.67-1.44,2.1-2.35,3.69-2.35h12.09l-16.83,40.7c-.94,2.27-3.16,3.75-5.62,3.75h-12.4c-2.49,0-4.73-1.52-5.65-3.83l-16.17-40.62Z"/>
  <path class="cls-2" d="M121.34,24.33c-13.75,0-24.9,11.15-24.9,24.9s11.15,24.9,24.9,24.9,24.9-11.15,24.9-24.9-11.15-24.9-24.9-24.9ZM131.36,51.63c-3.25,1.2-5.81,3.77-7.02,7.02l-3,8.1-3-8.1c-1.2-3.25-3.77-5.81-7.02-7.02l-8.1-3,8.1-3c3.25-1.2,5.81-3.77,7.02-7.02l3-8.1,3,8.1c1.2,3.25,3.77,5.81,7.02,7.02l8.1,3-8.1,3Z"/>
  <g>
    <path class="cls-1" d="M70.55,94.66c0-7.32,4.44-10.88,9.44-10.88,3.16,0,5.24,1.12,6.8,3.28h.4l.4-2.72h5.12v20.64h-5.12l-.4-2.76h-.4c-1.56,2.2-3.6,3.32-6.8,3.32-5,0-9.44-3.6-9.44-10.88ZM87.31,94.66c0-3.92-2.28-6.32-5.56-6.32s-5.52,2.12-5.52,6.32,2.32,6.32,5.52,6.32,5.56-2.4,5.56-6.32Z"/>
    <path class="cls-1" d="M97.07,106.02v-.2h5.56c0,2,1.52,2.92,4.32,2.92,3.68,0,5.6-2.24,5.6-5.76v-2.36h-.4c-1.52,2.16-3.6,3.32-6.8,3.32-5,0-9.44-3.36-9.44-10.08s4.44-10.08,9.44-10.08c3.2,0,5.24,1.12,6.8,3.28h.4l.4-2.72h5.12v17.96c0,8.44-5.72,10.84-11.04,10.84-6.84,0-9.88-2.72-9.96-7.12ZM112.66,93.86c0-3.32-2.44-5.52-5.68-5.52s-5.52,1.8-5.52,5.52,2.28,5.52,5.52,5.52,5.68-2.2,5.68-5.52Z"/>
    <path class="cls-1" d="M121.27,94.66c0-7.28,4.6-10.88,11.08-10.88s10.28,3.88,10.28,10.32c0,.64-.04,1.36-.12,2.04h-15.72c.36,3.44,2.56,5.28,5.52,5.28,1.8,0,3.4-.76,4.24-2.12h5.4c-1.2,3.76-4.68,6.24-9.6,6.24-6.8,0-11.08-3.88-11.08-10.88ZM137.1,92.42c-.44-3.04-2.6-4.52-5.04-4.52s-4.64,1.6-5.16,4.52h10.2Z"/>
    <path class="cls-1" d="M145.87,104.98v-11.48c0-6.8,4-9.72,10.48-9.72s10.48,2.84,10.48,9.64v11.56h-5.52v-11.56c0-3.24-1.72-4.92-4.96-4.92s-4.92,1.72-4.92,5v11.48h-5.56Z"/>
    <path class="cls-1" d="M170.03,94.66c0-7.36,4.68-10.88,11.08-10.88,4.88,0,9.48,2.64,9.96,8.16h-5.32c-.56-2.72-2.64-3.76-4.68-3.76-3.16,0-5.36,2.16-5.36,6.48s2.2,6.48,5.36,6.48c2.04,0,4.12-1.08,4.68-3.76h5.32c-.48,5.48-5.08,8.16-9.96,8.16-6.4,0-11.08-3.52-11.08-10.88Z"/>
    <path class="cls-1" d="M196.31,112.58l3.16-7.64-8.56-20.6h6.12l5.4,14.04h.4l5.4-14.04h5.8l-11.72,28.24h-6Z"/>
  </g>
</svg>